<?xml version="1.0" encoding="iso-8859-1"?>
<svg viewBox="0 0 155 167" xmlns="http://www.w3.org/2000/svg">
    <g fill="#D67E34">
        <path d="M3.25391 165.227C4.67248 166.34 6.46656 167 8.3858 167H146.613C148.115 167 149.534 166.588 150.744 165.887L76.4356 123.498L3.25391 165.227Z"/>
        <path d="M1.91925 80.9435C0.709287 82.3867 0 84.201 0 86.1803V158.671C0 161.31 1.29341 163.66 3.25437 165.186L76.4361 123.415L1.91925 80.9435Z"/>
        <path d="M155.001 158.712V86.2214C155.001 83.8298 153.958 81.6856 152.331 80.2012L76.4375 123.497L150.787 165.928C153.291 164.485 155.001 161.763 155.001 158.712Z"/>
        <path d="M8.38499 77.9336C5.79818 77.9336 3.46171 79.1294 1.91797 80.9849L76.4348 123.498L152.328 80.2015C150.826 78.7995 148.824 77.9336 146.612 77.9336H8.38499Z"/>
    </g>
    <g fill="black" fill-opacity="0.3">
        <path d="M3.25391 165.227C4.67248 166.34 6.46656 167 8.3858 167H146.613C148.115 167 149.534 166.588 150.744 165.887L76.4356 123.498L3.25391 165.227Z"/>
        <path d="M8.38499 77.9336C5.79818 77.9336 3.46171 79.1294 1.91797 80.9849L76.4348 123.498L152.328 80.2015C150.826 78.7995 148.824 77.9336 146.612 77.9336H8.38499Z"/>
    </g>
    <g fill="white">
        <path  d="M142.9 31.5857L142.608 31.8743L110.356 0H22.3211C17.7316 0 13.9766 3.71111 13.9766 8.24691V87.8296L76.4355 123.456L142.9 85.5205V31.5857Z"/>
        <path fill-opacity="0.2" d="M110.355 0.288642V23.6274C110.355 28.1632 114.111 31.8743 118.7 31.8743H142.899L110.648 0L110.355 0.288642Z"/>
    </g>
    <path fill="#31A3B5" d="M66.2698 91C65.022 91 64.0237 90.5128 63.0255 89.782L43.3102 70.5372C41.5633 68.8319 41.5633 66.1523 43.3102 64.447C45.0571 62.7418 47.8023 62.7418 49.5492 64.447L66.0202 80.525L105.451 42.2789C107.198 40.5737 109.943 40.5737 111.69 42.2789C113.437 43.9842 113.437 46.6638 111.69 48.3691L69.2645 89.782C68.5158 90.7564 67.268 91 66.2698 91Z"/>
    <path fill="#AFB6BB" d="M110.355 0.288642V23.6274C110.355 28.1632 114.111 31.8743 118.7 31.8743H142.899L110.648 0L110.355 0.288642Z"/>
</svg>
