<svg viewBox="0 0 781 1034" fill="none" xmlns="http://www.w3.org/2000/svg">
<path fill-rule="evenodd" clip-rule="evenodd" d="M652.178 872.99C633.336 873.466 616.823 846.278 611.517 809.148C609.943 809.448 608.339 809.622 606.712 809.663C582.946 810.262 562.963 782.346 562.079 747.31C562.05 746.173 562.042 745.042 562.054 743.918C533.243 743.76 509.246 710.656 508.2 669.227C507.141 627.242 530.054 592.607 559.379 591.867C570.366 591.59 580.694 596.11 589.37 604.079C607.374 588.212 621.509 575.995 621.509 575.995C623.567 580.235 626.007 585.109 628.714 590.518L628.715 590.519C647.252 627.556 678.337 689.662 685.503 745.041C688.309 757.442 689.867 771.608 690.238 786.333C691.432 833.632 674.392 872.43 652.178 872.99Z" fill="#ED940F"/>
<path fill-rule="evenodd" clip-rule="evenodd" d="M124.916 872.504C143.747 873.309 160.732 846.414 166.687 809.383C168.255 809.709 169.855 809.911 171.482 809.981C195.234 810.996 215.701 783.433 217.197 748.417C217.246 747.281 217.274 746.15 217.281 745.027C246.091 745.372 270.663 712.692 272.432 671.287C274.225 629.328 251.92 594.298 222.612 593.045C211.632 592.576 201.226 596.915 192.412 604.732C174.688 588.552 160.768 576.09 160.768 576.09C158.636 580.294 156.112 585.125 153.31 590.487C134.128 627.195 101.96 688.754 93.8297 744.002C90.8083 756.35 89.0043 770.483 88.3757 785.196C86.356 832.466 102.716 871.556 124.916 872.504Z" fill="#ED940F"/>
<path d="M372.695 101.015H406.452V194.859H372.695V101.015Z" fill="#ED940F"/>
<mask id="mask0_525_27125" style="mask-type:alpha" maskUnits="userSpaceOnUse" x="372" y="101" width="35" height="94">
<path d="M372.695 101.015H406.452V194.859H372.695V101.015Z" fill="#6B4DE0"/>
</mask>
<g mask="url(#mask0_525_27125)">
<path d="M421.981 110.467C421.981 127.992 407.774 142.198 390.249 142.198C372.724 142.198 358.518 127.992 358.518 110.467C358.518 92.9419 372.724 78.7352 390.249 78.7352C407.774 78.7352 421.981 92.9419 421.981 110.467Z" fill="#CF8311"/>
</g>
<path d="M418.604 110.467C418.604 126.127 405.909 138.823 390.248 138.823C374.588 138.823 361.893 126.127 361.893 110.467C361.893 94.8063 374.588 82.111 390.248 82.111C405.909 82.111 418.604 94.8063 418.604 110.467Z" fill="#F35757"/>
<mask id="mask1_525_27125" style="mask-type:alpha" maskUnits="userSpaceOnUse" x="34" y="177" width="712" height="736">
<path fill-rule="evenodd" clip-rule="evenodd" d="M389.574 177.988C370.504 178.247 318.479 184.181 256.757 206.169C203.254 224.604 84.4569 250.413 37.298 206.169C30.1268 226.455 32.4052 277 93.7012 328.15C100.103 314.667 115.821 293.841 142.841 289.379C133.685 300.467 116.387 324.061 104.307 346.111C81.8098 391.068 57.8778 518.637 114.148 593.866C133.961 620.355 157.919 638.338 184.141 649.438C172.555 705.876 186.338 776.307 235.199 831.598C279.079 881.253 353.843 912.512 390.405 912.512V631.187C390.405 631.187 390.405 631.187 390.405 631.187V912.512C425.239 912.512 501.731 881.253 545.611 831.598C594.579 776.185 608.316 705.566 596.592 649.065C622.47 637.938 646.114 620.062 665.706 593.869C721.976 518.64 698.044 391.072 675.547 346.114C663.467 324.064 646.169 300.469 637.013 289.381C664.033 293.843 679.751 314.669 686.153 328.153C747.449 277.003 749.727 226.457 742.556 206.171C695.397 250.416 576.6 224.606 523.096 206.171C461.375 184.184 409.35 178.249 390.28 177.99V177.981C390.121 177.982 389.96 177.983 389.796 177.985C389.722 177.984 389.648 177.984 389.574 177.983V177.988Z" fill="#645CBB"/>
</mask>
<g mask="url(#mask1_525_27125)">
<path fill-rule="evenodd" clip-rule="evenodd" d="M389.055 622.225V913.187C352.493 913.187 277.73 881.928 233.85 832.273C176.534 767.415 167.486 681.725 191.034 622.225H389.055ZM389.056 622.225V913.187C423.89 913.187 500.381 881.928 544.261 832.273C601.577 767.415 610.625 681.725 587.077 622.225H389.056Z" fill="url(#paint0_linear_525_27125)"/>
<g filter="url(#filter0_d_525_27125)">
<path fill-rule="evenodd" clip-rule="evenodd" d="M389.055 622.225V913.187C352.493 913.187 277.73 881.928 233.85 832.273C176.534 767.415 167.486 681.725 191.034 622.225H389.055ZM389.056 622.225V913.187C423.89 913.187 500.381 881.928 544.261 832.273C601.577 767.415 610.625 681.725 587.077 622.225H389.056Z" fill="#FFB94F"/>
</g>
<g filter="url(#filter1_d_525_27125)">
<path fill-rule="evenodd" clip-rule="evenodd" d="M423.323 908.121C570.246 777.081 557.728 698.137 541.598 638.279C521.107 562.241 438.706 560.05 394.433 558.873C393.086 558.837 391.775 558.802 390.501 558.766V558.759C390.459 558.76 390.417 558.761 390.375 558.762C390.333 558.761 390.291 558.76 390.249 558.759V558.766C388.974 558.802 387.66 558.837 386.311 558.872C341.962 560.045 259.419 562.228 238.893 637.976C222.735 697.607 210.307 776.589 357.481 907.131L364.908 909.156L373.228 910.924C376.95 911.567 378.928 911.833 382.363 912.21L387.1 912.532H390.249V913.882H393.645L398.374 913.559C401.803 913.181 403.778 912.914 407.493 912.268L415.555 910.154L423.323 908.121Z" fill="#FCD97E"/>
</g>
<path d="M261.97 715.391C261.97 719.493 258.645 722.818 254.544 722.818C250.442 722.818 247.117 719.493 247.117 715.391C247.117 711.29 250.442 707.965 254.544 707.965C258.645 707.965 261.97 711.29 261.97 715.391Z" fill="#ED940F"/>
<path d="M517.848 716.066C517.848 720.168 521.173 723.493 525.275 723.493C529.376 723.493 532.701 720.168 532.701 716.066C532.701 711.965 529.376 708.64 525.275 708.64C521.173 708.64 517.848 711.965 517.848 716.066Z" fill="#ED940F"/>
<path d="M291.677 795.057C291.677 799.159 288.352 802.484 284.251 802.484C280.149 802.484 276.824 799.159 276.824 795.057C276.824 790.956 280.149 787.631 284.251 787.631C288.352 787.631 291.677 790.956 291.677 795.057Z" fill="#ED940F"/>
<path d="M488.141 795.733C488.141 799.834 491.466 803.159 495.568 803.159C499.669 803.159 502.994 799.834 502.994 795.733C502.994 791.631 499.669 788.306 495.568 788.306C491.466 788.306 488.141 791.631 488.141 795.733Z" fill="#ED940F"/>
<path d="M347.712 862.571C347.712 866.673 344.387 869.998 340.286 869.998C336.184 869.998 332.859 866.673 332.859 862.571C332.859 858.47 336.184 855.145 340.286 855.145C344.387 855.145 347.712 858.47 347.712 862.571Z" fill="#ED940F"/>
<path d="M432.106 863.247C432.106 867.348 435.431 870.673 439.532 870.673C443.634 870.673 446.959 867.348 446.959 863.247C446.959 859.145 443.634 855.82 439.532 855.82C435.431 855.82 432.106 859.145 432.106 863.247Z" fill="#ED940F"/>
<path fill-rule="evenodd" clip-rule="evenodd" d="M390.28 69.2832C371.814 69.4319 319.257 76.6903 256.757 104.534C203.254 127.588 84.4569 159.864 37.298 104.534C30.1268 129.903 32.4052 193.112 93.7011 257.079C100.103 240.216 115.821 214.172 142.841 208.592C133.685 222.458 116.388 251.963 104.308 279.537C81.8105 335.756 57.877 495.291 114.148 589.371C182.582 703.786 300.461 691.302 390.28 635.525V69.2832Z" fill="#CF8311"/>
<path fill-rule="evenodd" clip-rule="evenodd" d="M389.574 69.2864C408.04 69.4351 460.596 76.6935 523.096 104.537C576.6 127.591 695.397 159.867 742.556 104.537C749.727 129.906 747.448 193.115 686.152 257.082C679.751 240.22 664.032 214.175 637.012 208.595C646.169 222.461 663.465 251.967 675.546 279.541C698.043 335.761 721.976 495.295 665.706 589.374C597.271 703.79 479.393 691.305 389.574 635.528V69.2864Z" fill="#CF8311"/>
<path fill-rule="evenodd" clip-rule="evenodd" d="M390.28 177.98C371.814 178.099 319.257 183.904 256.758 206.169C203.254 224.604 84.4569 250.413 37.298 206.169C30.1268 226.455 32.4052 277 93.7012 328.15C100.103 314.666 115.821 293.84 142.841 289.378C133.685 300.466 116.387 324.061 104.307 346.111C81.8098 391.068 57.8778 518.637 114.148 593.866C182.582 685.358 300.461 675.375 390.28 630.773V177.98Z" fill="#F9AC3A"/>
<path fill-rule="evenodd" clip-rule="evenodd" d="M389.574 177.983C408.04 178.102 460.596 183.906 523.096 206.171C576.6 224.606 695.397 250.416 742.556 206.171C749.727 226.457 747.448 277.002 686.152 328.153C679.751 314.669 664.032 293.843 637.012 289.381C646.169 300.469 663.466 324.064 675.547 346.114C698.044 391.072 721.975 518.64 665.706 593.869C597.271 685.361 479.393 675.377 389.574 630.776V177.983Z" fill="#F9AC3A"/>
<g filter="url(#filter2_d_525_27125)">
<path fill-rule="evenodd" clip-rule="evenodd" d="M435.65 179.848C507.269 229.781 640.664 343.009 616.109 403.928C591.651 464.606 455.441 482.432 389.609 483.806V483.821C389.477 483.819 389.346 483.816 389.214 483.814C389.085 483.816 388.956 483.819 388.827 483.821V483.806C322.995 482.432 186.785 464.606 162.327 403.928C137.823 343.136 270.613 230.251 342.339 180.159C356.311 179.143 368.283 178.528 377.933 178.22L388.827 177.996V177.98L389.221 177.988L389.365 177.985L389.609 177.983V177.996L411.533 178.447L435.65 179.848Z" fill="#FFB94F"/>
</g>
<g filter="url(#filter3_d_525_27125)">
<path fill-rule="evenodd" clip-rule="evenodd" d="M264.948 351.289C251.55 302.743 324.333 212.51 363.41 172.718L376.568 171.601L388.529 171.242V171.232L388.658 171.233L388.743 171.236L388.957 171.229V171.242L394.903 171.421C400.168 171.666 406.699 172.157 414.32 172.966C453.455 212.884 525.908 302.844 512.539 351.289C499.194 399.643 424.877 413.85 388.957 414.945V414.957C388.886 414.955 388.815 414.953 388.743 414.951C388.672 414.953 388.6 414.955 388.529 414.957V414.945C352.609 413.85 278.292 399.643 264.948 351.289Z" fill="#FCD97E"/>
</g>
<g filter="url(#filter4_d_525_27125)">
<path fill-rule="evenodd" clip-rule="evenodd" d="M388.899 573.724C360.63 605.947 319.235 626.276 273.113 626.276C187.912 626.276 118.844 556.905 118.844 471.331C118.844 385.758 187.912 316.387 273.113 316.387C319.235 316.387 360.63 336.715 388.899 368.938C417.169 336.715 458.564 316.387 504.686 316.387C589.886 316.387 658.955 385.758 658.955 471.331C658.955 556.905 589.886 626.276 504.686 626.276C458.564 626.276 417.169 605.947 388.899 573.724Z" fill="#FFF9F0"/>
</g>
<path fill-rule="evenodd" clip-rule="evenodd" d="M508.731 543.231C556.271 543.231 594.811 504.691 594.811 457.151C594.811 409.61 556.271 371.07 508.731 371.07C461.19 371.07 422.65 409.61 422.65 457.151C422.65 504.691 461.19 543.231 508.731 543.231ZM536.749 504.073C553.901 504.073 567.805 490.168 567.805 473.016C567.805 455.864 553.901 441.96 536.749 441.96C519.597 441.96 505.692 455.864 505.692 473.016C505.692 490.168 519.597 504.073 536.749 504.073Z" fill="#0B1640"/>
<path fill-rule="evenodd" clip-rule="evenodd" d="M270.406 543.231C317.947 543.231 356.487 504.691 356.487 457.151C356.487 409.61 317.947 371.07 270.406 371.07C222.866 371.07 184.326 409.61 184.326 457.151C184.326 504.691 222.866 543.231 270.406 543.231ZM242.388 473.016C259.54 473.016 273.445 459.112 273.445 441.96C273.445 424.808 259.54 410.904 242.388 410.904C225.236 410.904 211.332 424.808 211.332 441.96C211.332 459.112 225.236 473.016 242.388 473.016Z" fill="#0B1640"/>
<path fill-rule="evenodd" clip-rule="evenodd" d="M388.075 498.424L363.584 521.769L388.075 553.903V553.903L388.075 553.903L388.075 553.903V553.903L412.566 521.769L388.075 498.424V498.423L388.075 498.424L388.075 498.423V498.424Z" fill="#0B1640"/>
</g>
<rect x="291.672" y="1003.68" width="197.816" height="29.7061" rx="14.8531" fill="#EDE9DD"/>
<path d="M592.763 154.132C593.318 155.836 592.386 157.668 590.682 158.223L582.032 161.041C580.327 161.597 578.495 160.665 577.94 158.961C576.599 154.846 576.175 151.125 576.667 147.798C577.248 144.442 578.301 141.328 579.827 138.456C581.324 135.495 582.939 132.742 584.671 130.199C586.194 127.922 587.539 125.703 588.706 123.541C589.962 121.351 590.803 119.098 591.23 116.782C591.628 114.376 591.405 111.876 590.56 109.282C589.569 106.24 588.086 103.804 586.111 101.974C584.196 100.025 581.921 98.7869 579.288 98.2596C576.654 97.7322 573.779 97.9761 570.663 98.9912C567.547 100.006 564.991 101.68 562.993 104.013C561.056 106.228 559.842 108.849 559.352 111.879C559.051 113.74 559.057 115.688 559.37 117.723C559.71 119.934 558.597 122.218 556.47 122.911L547.213 125.926C545.086 126.619 542.776 125.46 542.287 123.277C541.159 118.246 541.092 113.403 542.083 108.747C543.329 102.899 545.993 97.7761 550.075 93.3788C554.246 88.9524 559.537 85.6951 565.947 83.6069C572.713 81.4027 578.849 80.7397 584.354 81.6179C589.948 82.4671 594.72 84.7221 598.67 88.3829C602.68 91.9252 605.647 96.6485 607.57 102.553C609.115 107.294 609.55 111.654 608.877 115.634C608.264 119.495 607.031 122.964 605.178 126.042C603.325 129.119 601.369 132.032 599.31 134.781C596.863 138.151 594.86 141.376 593.304 144.456C591.836 147.507 591.655 150.732 592.763 154.132ZM595.701 186.274C592.763 187.231 589.89 187.029 587.084 185.667C584.247 184.217 582.363 182.06 581.431 179.197C580.44 176.156 580.677 173.258 582.144 170.504C583.61 167.751 585.812 165.895 588.75 164.938C591.688 163.981 594.575 164.228 597.411 165.679C600.218 167.04 602.102 169.197 603.064 172.149C603.997 175.012 603.744 177.865 602.307 180.708C600.841 183.462 598.639 185.317 595.701 186.274Z" fill="#0B1640"/>
<path d="M697.806 173.393C697.003 174.212 695.688 174.225 694.869 173.423L690.712 169.348C689.893 168.545 689.88 167.23 690.683 166.411C692.621 164.434 694.607 163.093 696.64 162.388C698.715 161.726 700.793 161.403 702.874 161.419C704.997 161.393 707.036 161.495 708.991 161.726C710.733 161.916 712.39 162.023 713.962 162.046C715.576 162.111 717.103 161.922 718.543 161.48C720.026 160.994 721.378 160.128 722.6 158.882C724.032 157.42 724.976 155.859 725.431 154.197C725.97 152.534 726 150.878 725.52 149.228C725.041 147.577 724.052 146.018 722.555 144.551C721.058 143.083 719.352 142.128 717.438 141.684C715.609 141.24 713.762 141.326 711.899 141.944C711.186 142.18 710.49 142.494 709.809 142.885C707.87 143.999 705.343 144.115 703.745 142.549L701.382 140.232C699.784 138.666 699.736 136.064 701.528 134.724C703.725 133.081 706.073 131.913 708.569 131.221C712.256 130.198 715.95 130.195 719.652 131.211C723.396 132.268 726.809 134.307 729.889 137.326C733.14 140.513 735.33 143.798 736.46 147.181C737.632 150.606 737.764 153.98 736.855 157.304C736.031 160.626 734.228 163.706 731.447 166.543C729.214 168.821 726.869 170.358 724.412 171.153C722.04 171.946 719.708 172.273 717.414 172.131C715.119 171.99 712.888 171.741 710.72 171.386C708.085 170.994 705.663 170.812 703.455 170.839C701.29 170.908 699.407 171.76 697.806 173.393ZM680.438 184.564C679.027 183.18 678.292 181.491 678.234 179.496C678.219 177.458 678.886 175.751 680.234 174.375C681.667 172.914 683.381 172.192 685.377 172.21C687.372 172.227 689.076 172.928 690.488 174.312C691.9 175.696 692.613 177.407 692.629 179.445C692.686 181.44 692.02 183.147 690.629 184.565C689.281 185.941 687.588 186.641 685.55 186.667C683.554 186.649 681.85 185.948 680.438 184.564Z" fill="#0B1640"/>
<path d="M665.429 108.029C664.937 110.212 662.769 111.582 660.586 111.09L648.571 108.38C646.389 107.888 645.019 105.72 645.511 103.537L645.555 103.342C646.802 97.8124 648.816 93.3401 651.598 89.9251C654.499 86.5371 657.77 83.7378 661.412 81.5273C665.08 79.1965 668.74 77.1798 672.393 75.4771C675.632 73.9338 678.632 72.3366 681.393 70.6854C684.274 69.0613 686.73 67.0887 688.762 64.7679C690.821 62.3269 692.244 59.3633 693.03 55.8773C693.951 51.7903 693.914 48.0553 692.917 44.6724C692.066 41.1963 690.335 38.2796 687.724 35.9223C685.113 33.5649 681.714 31.9141 677.527 30.9699C673.34 30.0257 669.341 30.1977 665.531 31.4858C661.867 32.6808 658.745 34.8189 656.165 37.9003C654.335 40.0842 652.889 42.6718 651.825 45.6629C651.076 47.7708 648.939 49.1555 646.756 48.6633L631.87 45.3063C629.688 44.8142 628.301 42.6398 628.947 40.4978C631.037 33.564 634.33 27.6683 638.825 22.8106C644.144 17.0625 650.573 13.0806 658.113 10.8649C665.772 8.67618 673.908 8.55302 682.521 10.4954C691.613 12.5457 698.963 15.9086 704.572 20.584C710.3 25.2863 714.161 31.0204 716.155 37.7862C718.296 44.4587 718.472 51.7618 716.682 59.6955C715.246 66.0665 712.816 71.2661 709.393 75.2945C706.117 79.2296 702.406 82.3085 698.259 84.5314C694.112 86.7542 689.96 88.7231 685.801 90.4382C680.79 92.5924 676.377 94.8815 672.562 97.3054C668.866 99.7564 666.503 103.266 665.473 107.834L665.429 108.029ZM647.254 145.979C643.306 145.089 640.209 142.938 637.961 139.526C635.741 135.993 635.064 132.304 635.931 128.457C636.853 124.37 639.061 121.268 642.556 119.15C646.05 117.033 649.772 116.42 653.719 117.31C657.667 118.2 660.751 120.411 662.972 123.944C665.219 127.356 665.896 131.046 665.001 135.012C664.134 138.859 661.939 141.901 658.417 144.139C654.923 146.256 651.202 146.87 647.254 145.979Z" fill="#0B1640"/>
<defs>
<filter id="filter0_d_525_27125" x="137.073" y="583.067" width="503.965" height="374.679" filterUnits="userSpaceOnUse" color-interpolation-filters="sRGB">
<feFlood flood-opacity="0" result="BackgroundImageFix"/>
<feColorMatrix in="SourceAlpha" type="matrix" values="0 0 0 0 0 0 0 0 0 0 0 0 0 0 0 0 0 0 127 0" result="hardAlpha"/>
<feOffset dy="2.70056"/>
<feGaussianBlur stdDeviation="20.9293"/>
<feComposite in2="hardAlpha" operator="out"/>
<feColorMatrix type="matrix" values="0 0 0 0 0.174465 0 0 0 0 0.118924 0 0 0 0 0.570833 0 0 0 0.15 0"/>
<feBlend mode="normal" in2="BackgroundImageFix" result="effect1_dropShadow_525_27125"/>
<feBlend mode="normal" in="SourceGraphic" in2="effect1_dropShadow_525_27125" result="shape"/>
</filter>
<filter id="filter1_d_525_27125" x="203.236" y="538.505" width="374.027" height="407.784" filterUnits="userSpaceOnUse" color-interpolation-filters="sRGB">
<feFlood flood-opacity="0" result="BackgroundImageFix"/>
<feColorMatrix in="SourceAlpha" type="matrix" values="0 0 0 0 0 0 0 0 0 0 0 0 0 0 0 0 0 0 127 0" result="hardAlpha"/>
<feOffset dy="6.07625"/>
<feGaussianBlur stdDeviation="13.1652"/>
<feComposite in2="hardAlpha" operator="out"/>
<feColorMatrix type="matrix" values="0 0 0 0 0.313726 0 0 0 0 0.0627451 0 0 0 0 0.258824 0 0 0 0.1 0"/>
<feBlend mode="normal" in2="BackgroundImageFix" result="effect1_dropShadow_525_27125"/>
<feBlend mode="normal" in="SourceGraphic" in2="effect1_dropShadow_525_27125" result="shape"/>
</filter>
<filter id="filter2_d_525_27125" x="121.544" y="142.873" width="535.348" height="381.457" filterUnits="userSpaceOnUse" color-interpolation-filters="sRGB">
<feFlood flood-opacity="0" result="BackgroundImageFix"/>
<feColorMatrix in="SourceAlpha" type="matrix" values="0 0 0 0 0 0 0 0 0 0 0 0 0 0 0 0 0 0 127 0" result="hardAlpha"/>
<feOffset dy="2.70056"/>
<feGaussianBlur stdDeviation="18.9039"/>
<feComposite in2="hardAlpha" operator="out"/>
<feColorMatrix type="matrix" values="0 0 0 0 0.45 0 0 0 0 0.345525 0 0 0 0 0.076875 0 0 0 0.12 0"/>
<feBlend mode="normal" in2="BackgroundImageFix" result="effect1_dropShadow_525_27125"/>
<feBlend mode="normal" in="SourceGraphic" in2="effect1_dropShadow_525_27125" result="shape"/>
</filter>
<filter id="filter3_d_525_27125" x="241.045" y="151.65" width="295.397" height="288.287" filterUnits="userSpaceOnUse" color-interpolation-filters="sRGB">
<feFlood flood-opacity="0" result="BackgroundImageFix"/>
<feColorMatrix in="SourceAlpha" type="matrix" values="0 0 0 0 0 0 0 0 0 0 0 0 0 0 0 0 0 0 127 0" result="hardAlpha"/>
<feOffset dy="2.70056"/>
<feGaussianBlur stdDeviation="11.1398"/>
<feComposite in2="hardAlpha" operator="out"/>
<feColorMatrix type="matrix" values="0 0 0 0 0.479167 0 0 0 0 0.295486 0 0 0 0 0.0798611 0 0 0 0.15 0"/>
<feBlend mode="normal" in2="BackgroundImageFix" result="effect1_dropShadow_525_27125"/>
<feBlend mode="normal" in="SourceGraphic" in2="effect1_dropShadow_525_27125" result="shape"/>
</filter>
<filter id="filter4_d_525_27125" x="93.1885" y="290.731" width="591.422" height="361.199" filterUnits="userSpaceOnUse" color-interpolation-filters="sRGB">
<feFlood flood-opacity="0" result="BackgroundImageFix"/>
<feColorMatrix in="SourceAlpha" type="matrix" values="0 0 0 0 0 0 0 0 0 0 0 0 0 0 0 0 0 0 127 0" result="hardAlpha"/>
<feOffset/>
<feGaussianBlur stdDeviation="12.8276"/>
<feComposite in2="hardAlpha" operator="out"/>
<feColorMatrix type="matrix" values="0 0 0 0 0.3125 0 0 0 0 0.0963542 0 0 0 0 0.277917 0 0 0 0.07 0"/>
<feBlend mode="normal" in2="BackgroundImageFix" result="effect1_dropShadow_525_27125"/>
<feBlend mode="normal" in="SourceGraphic" in2="effect1_dropShadow_525_27125" result="shape"/>
</filter>
<linearGradient id="paint0_linear_525_27125" x1="449.114" y1="601.384" x2="473.553" y2="796.424" gradientUnits="userSpaceOnUse">
<stop stop-color="#EC8BCD"/>
<stop offset="0.3725" stop-color="#C07BCD"/>
<stop offset="0.4914" stop-color="#B176CD"/>
<stop offset="0.9988" stop-color="#7350D9"/>
</linearGradient>
</defs>
</svg>
