<svg viewBox="0 0 993 979" fill="none" xmlns="http://www.w3.org/2000/svg">
<path fill-rule="evenodd" clip-rule="evenodd" d="M899.036 688.181C892.736 705.945 861.44 711.633 824.87 703.3C824.586 704.878 824.175 706.437 823.631 707.972C815.685 730.378 782.466 739.046 749.435 727.332C748.369 726.955 747.317 726.56 746.278 726.15L746.251 726.16C737.106 749.6 705.814 760.616 672.015 753.797L653.6 760.652L649.607 746.666C614.618 731.225 594.164 700.044 603.321 674.222C606.656 664.819 613.487 657.337 622.609 652.11L610.736 610.526C615.433 610.122 620.857 609.588 626.878 608.996C668.096 604.941 737.216 598.143 791.493 611.272C804.076 613.09 817.859 616.705 831.74 621.628C876.333 637.441 906.462 667.238 899.036 688.181Z" fill="#ED940F"/>
<path fill-rule="evenodd" clip-rule="evenodd" d="M94.4191 534.07C93.0247 552.867 119.374 570.686 156.201 577.798C155.825 579.356 155.573 580.949 155.453 582.572C153.694 606.28 180.602 627.602 215.553 630.194C216.68 630.278 217.802 630.341 218.917 630.384L218.939 630.405C217.862 655.542 242.06 678.236 275.74 685.616L289.83 699.312L299.121 688.122C337.366 688.093 368.652 667.799 370.679 640.477C371.417 630.527 368.18 620.926 361.938 612.466L389.564 579.194C385.429 576.931 380.68 574.257 375.41 571.289L375.409 571.288L375.408 571.288C339.319 550.965 278.8 516.885 223.835 507.026C211.587 503.619 197.516 501.373 182.83 500.283C135.646 496.783 96.0629 511.91 94.4191 534.07Z" fill="#ED940F"/>
<path d="M571.324 78.8108L604.542 84.8198L587.837 177.165L554.619 171.156L571.324 78.8108Z" fill="#ED940F"/>
<mask id="mask0_525_27289" style="mask-type:alpha" maskUnits="userSpaceOnUse" x="554" y="78" width="51" height="100">
<path d="M571.324 78.8108L604.542 84.8198L587.837 177.165L554.619 171.156L571.324 78.8108Z" fill="#6B4DE0"/>
</mask>
<g mask="url(#mask0_525_27289)">
<path d="M618.139 96.8852C615.019 114.13 598.511 125.581 581.266 122.461C564.021 119.342 552.57 102.833 555.689 85.5883C558.809 68.3433 575.318 56.8924 592.563 60.012C609.808 63.1315 621.258 79.6402 618.139 96.8852Z" fill="#CF8311"/>
</g>
<path d="M614.819 96.2842C612.031 111.695 597.279 121.927 581.868 119.14C566.458 116.352 556.225 101.599 559.013 86.1891C561.801 70.7787 576.553 60.546 591.964 63.3337C607.374 66.1214 617.607 80.8738 614.819 96.2842Z" fill="#F35757"/>
<mask id="mask1_525_27289" style="mask-type:alpha" maskUnits="userSpaceOnUse" x="212" y="122" width="706" height="760">
<path fill-rule="evenodd" clip-rule="evenodd" d="M574.231 157.559C555.419 154.419 503.169 150.998 438.519 161.648C382.589 170.264 261.095 174.515 222.565 122.582C211.897 141.268 205.142 191.411 256.354 252.656C265.053 240.527 284.228 222.832 311.611 223.251C300.626 232.532 279.403 252.674 263.59 272.222C233.449 312.461 187.196 433.727 229.174 517.768C243.956 547.361 264.33 569.321 288.157 584.911C266.709 638.385 267.735 710.145 305.974 773.251C340.314 829.924 408.319 873.992 444.297 880.5L494.375 603.668C494.375 603.668 494.376 603.668 494.376 603.668L444.298 880.5C478.576 886.701 559.409 869.558 611.428 828.506C669.478 782.695 695.566 715.649 694.087 657.964C721.533 651.621 747.982 638.239 771.923 615.952C840.683 551.944 839.845 422.161 825.711 373.912C817.749 350.062 804.926 323.762 797.889 311.22C823.683 320.42 835.443 343.711 839.343 358.12C908.765 318.697 920.004 269.365 916.559 248.126C862.277 283.269 749.972 236.725 700.604 209.061C643.783 176.437 593.645 161.337 574.925 157.687L574.927 157.678C574.771 157.651 574.612 157.623 574.451 157.596C574.377 157.582 574.304 157.568 574.232 157.555L574.231 157.559Z" fill="#645CBB"/>
</mask>
<g mask="url(#mask1_525_27289)">
<path fill-rule="evenodd" clip-rule="evenodd" d="M494.643 594.61L442.849 880.925C406.871 874.417 338.866 830.349 304.526 773.676C259.671 699.651 266.02 613.719 299.784 559.361L494.643 594.61ZM494.643 594.61L442.85 880.925C477.128 887.126 557.962 869.983 609.98 828.932C677.925 775.312 702.083 692.601 689.502 629.859L494.643 594.61Z" fill="url(#paint0_linear_525_27289)"/>
<g filter="url(#filter0_d_525_27289)">
<path fill-rule="evenodd" clip-rule="evenodd" d="M494.643 594.61L442.849 880.925C406.871 874.417 338.866 830.349 304.526 773.676C259.671 699.651 266.02 613.719 299.784 559.361L494.643 594.61ZM494.643 594.61L442.85 880.925C477.128 887.126 557.962 869.983 609.98 828.932C677.925 775.312 702.083 692.601 689.502 629.86L494.643 594.61Z" fill="#FFB94F"/>
</g>
<g filter="url(#filter1_d_525_27289)">
<path fill-rule="evenodd" clip-rule="evenodd" d="M477.49 882.041C645.393 779.247 647.128 699.335 641.91 637.561C635.282 559.091 554.586 542.267 511.23 533.227C509.911 532.952 508.627 532.684 507.381 532.422L507.382 532.415C507.34 532.409 507.299 532.403 507.257 532.396C507.216 532.388 507.175 532.379 507.134 532.371L507.133 532.378C505.871 532.186 504.572 531.986 503.238 531.781C459.389 525.041 377.776 512.495 344.094 583.38C317.579 639.183 291.29 714.69 412.877 869.346L419.824 872.661L427.697 875.881C431.245 877.177 433.144 877.791 436.457 878.773L441.061 879.933L444.16 880.493L443.919 881.822L447.261 882.426L451.971 882.951C455.413 883.189 457.404 883.277 461.175 883.303L469.484 882.659L477.49 882.041Z" fill="#FCD97E"/>
</g>
<path d="M355.023 660.109C354.293 664.146 350.43 666.826 346.394 666.096C342.357 665.366 339.677 661.503 340.407 657.466C341.137 653.43 345 650.75 349.037 651.48C353.073 652.21 355.753 656.073 355.023 660.109Z" fill="#ED940F"/>
<path d="M606.695 706.306C605.965 710.342 608.646 714.205 612.682 714.935C616.718 715.665 620.581 712.985 621.311 708.949C622.041 704.913 619.361 701.049 615.325 700.319C611.289 699.589 607.425 702.27 606.695 706.306Z" fill="#ED940F"/>
<path d="M370.08 743.79C369.35 747.827 365.486 750.507 361.45 749.777C357.414 749.047 354.734 745.184 355.464 741.147C356.193 737.111 360.057 734.431 364.093 735.161C368.129 735.891 370.81 739.754 370.08 743.79Z" fill="#ED940F"/>
<path d="M563.289 779.415C562.559 783.451 565.239 787.314 569.276 788.044C573.312 788.774 577.175 786.094 577.905 782.058C578.635 778.021 575.955 774.158 571.919 773.428C567.882 772.698 564.019 775.378 563.289 779.415Z" fill="#ED940F"/>
<path d="M413.207 820.198C412.477 824.234 408.613 826.915 404.577 826.185C400.541 825.455 397.861 821.591 398.591 817.555C399.32 813.519 403.184 810.839 407.22 811.569C411.256 812.299 413.936 816.162 413.207 820.198Z" fill="#ED940F"/>
<path d="M496.133 835.88C495.403 839.916 498.083 843.779 502.119 844.509C506.155 845.239 510.019 842.559 510.749 838.523C511.479 834.487 508.798 830.623 504.762 829.893C500.726 829.163 496.863 831.844 496.133 835.88Z" fill="#ED940F"/>
<path fill-rule="evenodd" clip-rule="evenodd" d="M594.277 50.7161C576.079 47.5754 523.07 45.3624 456.612 61.6359C399.859 74.7979 277.214 85.4116 240.657 22.5704C229.085 46.2577 220.075 108.863 269.006 182.719C278.307 167.266 298.41 144.435 325.992 143.754C314.513 155.769 292.239 181.726 275.443 206.71C243.297 258.03 191.351 410.753 229.975 513.344C276.95 638.114 395.168 646.812 493.481 607.915L594.277 50.7161Z" fill="#CF8311"/>
<path fill-rule="evenodd" clip-rule="evenodd" d="M593.583 50.5939C611.727 54.0273 662.153 70.5253 718.698 109.05C767.243 141.26 878.397 194.167 934.652 148.115C937.193 174.355 923.699 236.15 851.995 288.184C848.698 270.451 837.866 242.025 812.271 231.724C818.814 247 830.585 279.121 837.563 308.408C849.691 367.744 844.839 528.975 772.725 611.529C685.017 711.935 571.243 678.667 492.787 607.793L593.583 50.5939Z" fill="#CF8311"/>
<path fill-rule="evenodd" clip-rule="evenodd" d="M574.927 157.678C556.735 154.508 503.984 150.863 438.519 161.647C382.589 170.264 261.095 174.515 222.565 122.582C211.897 141.268 205.142 191.411 256.354 252.656C265.053 240.527 284.228 222.831 311.611 223.25C300.626 232.532 279.403 252.673 263.59 272.222C233.449 312.461 187.196 433.727 229.174 517.768C280.23 619.98 398.003 631.139 494.327 603.239L574.927 157.678Z" fill="#F9AC3A"/>
<path fill-rule="evenodd" clip-rule="evenodd" d="M574.233 157.555C592.383 160.959 643.067 176.026 700.605 209.06C749.973 236.725 862.278 283.269 916.56 248.126C920.005 269.365 908.766 318.697 839.344 358.119C835.444 343.711 823.684 320.42 797.89 311.219C804.927 323.761 817.75 350.062 825.712 373.912C839.846 422.161 840.684 551.944 771.924 615.952C688.297 693.801 574.078 662.993 493.633 603.116L574.233 157.555Z" fill="#F9AC3A"/>
<g filter="url(#filter2_d_525_27289)">
<path fill-rule="evenodd" clip-rule="evenodd" d="M619.243 167.591C680.83 229.476 791.938 364.641 756.931 420.216C722.063 475.571 584.855 468.866 519.83 458.499L519.827 458.515C519.697 458.489 519.566 458.463 519.436 458.436C519.31 458.416 519.184 458.396 519.058 458.375L519.061 458.36C454.525 445.29 323.663 403.502 310.397 339.44C297.106 275.256 447.87 187.812 527.367 151.288C541.284 152.774 553.166 154.298 562.712 155.712L573.497 157.435L573.5 157.418L573.891 157.498L574.051 157.523L574.268 157.561L574.266 157.573L595.761 161.92L619.243 167.591Z" fill="#FFB94F"/>
</g>
<g filter="url(#filter3_d_525_27289)">
<path fill-rule="evenodd" clip-rule="evenodd" d="M420.766 305.908C416.224 255.752 503.907 179.916 549.443 147.715L562.59 148.959L574.424 150.735L574.426 150.725L574.562 150.751L574.639 150.767L574.847 150.798L574.845 150.811L580.653 152.043C585.792 153.221 592.135 154.868 599.496 157.022C630.901 203.27 686.183 304.689 664.403 349.981C642.664 395.187 567.005 395.938 531.464 390.621L531.462 390.634C531.391 390.619 531.32 390.604 531.249 390.589C531.179 390.578 531.11 390.568 531.041 390.557L531.043 390.545C495.892 383.074 425.29 355.865 420.766 305.908Z" fill="#FCD97E"/>
</g>
<g filter="url(#filter4_d_525_27289)">
<path fill-rule="evenodd" clip-rule="evenodd" d="M503.143 546.855C469.589 573.531 425.237 586.166 379.852 577.956C296.012 562.79 240.395 482.232 255.628 398.025C270.86 313.819 351.175 257.85 435.014 273.017C480.4 281.227 517.515 308.599 539.597 345.34C573.151 318.664 617.503 306.028 662.888 314.238C746.728 329.405 802.345 409.963 787.112 494.169C771.88 578.376 691.566 634.344 607.726 619.178C562.341 610.968 525.226 583.596 503.143 546.855Z" fill="#FFF9F0"/>
</g>
<path fill-rule="evenodd" clip-rule="evenodd" d="M516.401 472.73L536.345 500.062L506.525 527.324L506.525 527.324L506.525 527.324L506.525 527.324L506.525 527.324L488.145 491.343L516.401 472.73L516.401 472.73L516.401 472.73Z" fill="#0B1640"/>
<path d="M470.963 438.772C474.853 439.476 478.608 436.893 478.985 432.958C480.914 412.838 475.681 392.592 464.074 375.858C451.101 357.156 431.231 344.373 408.834 340.322C386.437 336.27 363.348 341.282 344.646 354.254C327.912 365.861 315.917 382.99 310.675 402.511C309.65 406.329 312.262 410.064 316.152 410.768C320.042 411.471 323.73 408.874 324.819 405.074C329.342 389.287 339.191 375.458 352.804 366.016C368.387 355.207 387.625 351.032 406.286 354.408C424.947 357.783 441.503 368.434 452.312 384.016C461.754 397.629 466.134 414.032 464.84 430.403C464.528 434.344 467.073 438.069 470.963 438.772Z" fill="#0B1640"/>
<path d="M722.09 484.2C725.98 484.904 729.735 482.32 730.112 478.386C732.041 458.266 726.808 438.02 715.201 421.286C702.228 402.584 682.358 389.801 659.961 385.749C637.564 381.698 614.475 386.709 595.773 399.682C579.039 411.289 567.044 428.418 561.802 447.939C560.777 451.757 563.389 455.492 567.279 456.195C571.169 456.899 574.857 454.302 575.946 450.502C580.469 434.715 590.318 420.886 603.931 411.444C619.514 400.635 638.752 396.459 657.413 399.835C676.074 403.211 692.63 413.862 703.439 429.444C712.881 443.057 717.261 459.46 715.967 475.831C715.655 479.771 718.2 483.496 722.09 484.2Z" fill="#0B1640"/>
</g>
<path d="M356.66 963.423C356.66 955.22 363.31 948.57 371.513 948.57H539.623C547.826 948.57 554.476 955.22 554.476 963.423C554.476 971.626 547.826 978.276 539.623 978.276H371.513C363.31 978.276 356.66 971.626 356.66 963.423Z" fill="#EDE9DD"/>
<path d="M41.6983 311.438C41.478 306.482 46.9691 303.365 51.1118 306.095L72.2348 320.013C73.8566 321.082 75.8917 321.31 77.7104 320.629L101.398 311.751C106.043 310.01 110.705 314.269 109.389 319.053L102.679 343.443C102.164 345.316 102.575 347.322 103.785 348.841L119.548 368.626C122.64 372.506 120.029 378.255 115.073 378.482L89.8035 379.637C87.8633 379.726 86.0823 380.737 85.0116 382.358L71.0662 403.463C68.3313 407.602 62.0567 406.896 60.3097 402.253L51.4018 378.577C50.7178 376.759 49.206 375.378 47.3339 374.86L22.9524 368.119C18.1707 366.797 16.903 360.611 20.7793 357.515L40.5437 341.727C42.0612 340.515 42.9078 338.65 42.8216 336.709L41.6983 311.438Z" fill="#F35757"/>
<path d="M799.277 14.8277C800.943 10.1544 807.204 9.33869 810.011 13.4293L833.412 47.5298C834.511 49.1313 836.309 50.1109 838.251 50.1656L879.592 51.3305C884.551 51.4703 887.262 57.173 884.239 61.1068L859.039 93.9002C857.855 95.4402 857.479 97.4533 858.027 99.3167L869.694 138.995C871.094 143.754 866.508 148.094 861.833 146.435L822.857 132.602C821.027 131.952 818.996 132.217 817.393 133.314L783.263 156.671C779.168 159.473 773.623 156.453 773.757 151.493L774.869 110.151C774.921 108.209 774.042 106.359 772.503 105.174L739.742 79.9317C735.812 76.9037 736.971 70.6969 741.729 69.2912L781.392 57.5731C783.255 57.0228 784.742 55.6151 785.394 53.7856L799.277 14.8277Z" fill="#29BCF9"/>
<path d="M947.783 116.486C951.536 113.242 957.385 115.62 957.81 120.563L959.362 138.609C959.528 140.544 960.61 142.283 962.272 143.288L977.771 152.66C982.016 155.227 981.563 161.524 976.993 163.456L960.31 170.508C958.521 171.264 957.201 172.83 956.759 174.721L952.635 192.358C951.506 197.189 945.376 198.703 942.127 194.954L930.265 181.267C928.993 179.799 927.095 179.028 925.16 179.192L907.112 180.72C902.169 181.139 898.834 175.777 901.396 171.528L910.748 156.017C911.751 154.353 911.898 152.311 911.144 150.521L904.113 133.829C902.188 129.257 906.257 124.428 911.089 125.552L928.731 129.653C930.623 130.092 932.611 129.601 934.08 128.331L947.783 116.486Z" fill="#F35757"/>
<defs>
<filter id="filter0_d_525_27289" x="230.811" y="520.203" width="503.746" height="406.516" filterUnits="userSpaceOnUse" color-interpolation-filters="sRGB">
<feFlood flood-opacity="0" result="BackgroundImageFix"/>
<feColorMatrix in="SourceAlpha" type="matrix" values="0 0 0 0 0 0 0 0 0 0 0 0 0 0 0 0 0 0 127 0" result="hardAlpha"/>
<feOffset dy="2.70056"/>
<feGaussianBlur stdDeviation="20.9293"/>
<feComposite in2="hardAlpha" operator="out"/>
<feColorMatrix type="matrix" values="0 0 0 0 0.174465 0 0 0 0 0.118924 0 0 0 0 0.570833 0 0 0 0.15 0"/>
<feBlend mode="normal" in2="BackgroundImageFix" result="effect1_dropShadow_525_27289"/>
<feBlend mode="normal" in="SourceGraphic" in2="effect1_dropShadow_525_27289" result="shape"/>
</filter>
<filter id="filter1_d_525_27289" x="295.413" y="506.142" width="374.174" height="409.568" filterUnits="userSpaceOnUse" color-interpolation-filters="sRGB">
<feFlood flood-opacity="0" result="BackgroundImageFix"/>
<feColorMatrix in="SourceAlpha" type="matrix" values="0 0 0 0 0 0 0 0 0 0 0 0 0 0 0 0 0 0 127 0" result="hardAlpha"/>
<feOffset dy="6.07625"/>
<feGaussianBlur stdDeviation="13.1652"/>
<feComposite in2="hardAlpha" operator="out"/>
<feColorMatrix type="matrix" values="0 0 0 0 0.313726 0 0 0 0 0.0627451 0 0 0 0 0.258824 0 0 0 0.1 0"/>
<feBlend mode="normal" in2="BackgroundImageFix" result="effect1_dropShadow_525_27289"/>
<feBlend mode="normal" in="SourceGraphic" in2="effect1_dropShadow_525_27289" result="shape"/>
</filter>
<filter id="filter2_d_525_27289" x="271.765" y="116.181" width="529.649" height="389.875" filterUnits="userSpaceOnUse" color-interpolation-filters="sRGB">
<feFlood flood-opacity="0" result="BackgroundImageFix"/>
<feColorMatrix in="SourceAlpha" type="matrix" values="0 0 0 0 0 0 0 0 0 0 0 0 0 0 0 0 0 0 127 0" result="hardAlpha"/>
<feOffset dy="2.70056"/>
<feGaussianBlur stdDeviation="18.9039"/>
<feComposite in2="hardAlpha" operator="out"/>
<feColorMatrix type="matrix" values="0 0 0 0 0.45 0 0 0 0 0.345525 0 0 0 0 0.076875 0 0 0 0.12 0"/>
<feBlend mode="normal" in2="BackgroundImageFix" result="effect1_dropShadow_525_27289"/>
<feBlend mode="normal" in="SourceGraphic" in2="effect1_dropShadow_525_27289" result="shape"/>
</filter>
<filter id="filter3_d_525_27289" x="398.317" y="128.136" width="293.316" height="289.716" filterUnits="userSpaceOnUse" color-interpolation-filters="sRGB">
<feFlood flood-opacity="0" result="BackgroundImageFix"/>
<feColorMatrix in="SourceAlpha" type="matrix" values="0 0 0 0 0 0 0 0 0 0 0 0 0 0 0 0 0 0 127 0" result="hardAlpha"/>
<feOffset dy="2.70056"/>
<feGaussianBlur stdDeviation="11.1398"/>
<feComposite in2="hardAlpha" operator="out"/>
<feColorMatrix type="matrix" values="0 0 0 0 0.479167 0 0 0 0 0.295486 0 0 0 0 0.0798611 0 0 0 0.15 0"/>
<feBlend mode="normal" in2="BackgroundImageFix" result="effect1_dropShadow_525_27289"/>
<feBlend mode="normal" in="SourceGraphic" in2="effect1_dropShadow_525_27289" result="shape"/>
</filter>
<filter id="filter4_d_525_27289" x="227.46" y="244.882" width="587.819" height="402.432" filterUnits="userSpaceOnUse" color-interpolation-filters="sRGB">
<feFlood flood-opacity="0" result="BackgroundImageFix"/>
<feColorMatrix in="SourceAlpha" type="matrix" values="0 0 0 0 0 0 0 0 0 0 0 0 0 0 0 0 0 0 127 0" result="hardAlpha"/>
<feOffset/>
<feGaussianBlur stdDeviation="12.8276"/>
<feComposite in2="hardAlpha" operator="out"/>
<feColorMatrix type="matrix" values="0 0 0 0 0.3125 0 0 0 0 0.0963542 0 0 0 0 0.277917 0 0 0 0.07 0"/>
<feBlend mode="normal" in2="BackgroundImageFix" result="effect1_dropShadow_525_27289"/>
<feBlend mode="normal" in="SourceGraphic" in2="effect1_dropShadow_525_27289" result="shape"/>
</filter>
<linearGradient id="paint0_linear_525_27289" x1="586.768" y1="504.572" x2="578.438" y2="799.413" gradientUnits="userSpaceOnUse">
<stop stop-color="#EC8BCD"/>
<stop offset="0.3725" stop-color="#C07BCD"/>
<stop offset="0.4914" stop-color="#B176CD"/>
<stop offset="0.9988" stop-color="#7350D9"/>
</linearGradient>
</defs>
</svg>
