<svg width="802" height="961" viewBox="0 0 802 961" fill="none" xmlns="http://www.w3.org/2000/svg">
    <path d="M301.241 945.338C301.241 937.135 307.891 930.485 316.094 930.485H484.203C492.406 930.485 499.056 937.135 499.056 945.338C499.056 953.542 492.406 960.191 484.203 960.191H316.094C307.891 960.191 301.241 953.542 301.241 945.338Z" fill="#EDE9DD"/>
    <path fill-rule="evenodd" clip-rule="evenodd" d="M798.032 413.021C806.679 429.768 789.417 456.487 758.322 477.459C759.278 478.745 760.134 480.112 760.881 481.558C771.788 502.682 755.384 532.841 724.243 548.92C723.232 549.442 722.218 549.943 721.202 550.422C733.628 576.416 714.308 612.451 677.484 631.464C640.167 650.732 599.006 645.222 585.548 619.158C580.505 609.392 580.067 598.126 583.454 586.842C561.321 577.563 544.162 570.173 544.162 570.173C547.08 566.471 550.402 562.15 554.088 557.354L554.089 557.354C579.33 524.516 621.657 469.451 668.365 438.845C678.299 430.911 690.366 423.331 703.452 416.574C745.492 394.867 787.837 393.277 798.032 413.021Z" fill="#ED940F"/>
    <path fill-rule="evenodd" clip-rule="evenodd" d="M3.41036 413.021C-5.23687 429.768 12.0249 456.487 43.1204 477.459C42.1643 478.745 41.3086 480.112 40.5615 481.558C29.6547 502.682 46.0579 532.841 77.1992 548.92C78.21 549.442 79.224 549.943 80.2401 550.422C67.8141 576.416 87.1347 612.451 123.958 631.464C161.275 650.732 202.437 645.222 215.895 619.158C220.937 609.392 221.375 598.126 217.988 586.842C240.121 577.563 257.28 570.173 257.28 570.173C254.362 566.471 251.041 562.15 247.354 557.354L247.354 557.354C222.113 524.516 179.785 469.451 133.077 438.845C123.143 430.911 111.077 423.331 97.9905 416.574C55.9499 394.867 13.6049 393.277 3.41036 413.021Z" fill="#ED940F"/>
    <path d="M382.94 19.7227H416.697V113.567H382.94V19.7227Z" fill="#ED940F"/>
    <mask id="mask0_525_26886" style="mask-type:alpha" maskUnits="userSpaceOnUse" x="382" y="19" width="35" height="95">
        <path d="M382.94 19.7227H416.697V113.567H382.94V19.7227Z" fill="#6B4DE0"/>
    </mask>
    <g mask="url(#mask0_525_26886)">
        <path d="M432.225 29.1746C432.225 46.6995 418.019 60.9062 400.494 60.9062C382.969 60.9062 368.762 46.6995 368.762 29.1746C368.762 11.6498 382.969 -2.55688 400.494 -2.55688C418.019 -2.55688 432.225 11.6498 432.225 29.1746Z" fill="#CF8311"/>
    </g>
    <path d="M428.849 29.1747C428.849 44.8352 416.154 57.5305 400.493 57.5305C384.833 57.5305 372.137 44.8352 372.137 29.1747C372.137 13.5142 384.833 0.818848 400.493 0.818848C416.154 0.818848 428.849 13.5142 428.849 29.1747Z" fill="#F35757"/>
    <mask id="mask1_525_26886" style="mask-type:alpha" maskUnits="userSpaceOnUse" x="44" y="96" width="712" height="736">
        <path fill-rule="evenodd" clip-rule="evenodd" d="M399.817 96.6958C380.746 96.9548 328.722 102.889 267 124.877C213.497 143.312 94.6996 169.121 47.5407 124.877C40.3695 145.163 42.6479 195.708 103.944 246.859C110.345 233.375 126.064 212.549 153.084 208.087C143.927 219.175 126.63 242.769 114.55 264.819C92.0525 309.776 68.1205 437.345 124.391 512.574C144.204 539.064 168.162 557.047 194.384 568.146C182.798 624.584 196.581 695.015 245.442 750.306C289.322 799.961 364.085 831.22 400.648 831.22V549.895C400.648 549.895 400.648 549.895 400.648 549.895V831.22C435.482 831.22 511.973 799.961 555.854 750.306C604.822 694.893 618.558 624.274 606.835 567.774C632.713 556.646 656.357 538.77 675.949 512.577C732.219 437.348 708.287 309.78 685.79 264.823C673.71 242.773 656.412 219.178 647.255 208.089C674.275 212.551 689.994 233.377 696.396 246.861C757.691 195.711 759.97 145.166 752.799 124.879C705.64 169.124 586.843 143.315 533.339 124.879C471.618 102.892 419.593 96.9574 400.522 96.6985V96.6887C400.364 96.6897 400.203 96.6912 400.039 96.6931C399.965 96.6924 399.89 96.6918 399.817 96.6914V96.6958Z" fill="#645CBB"/>
    </mask>
    <g mask="url(#mask1_525_26886)">
        <path fill-rule="evenodd" clip-rule="evenodd" d="M399.296 540.933V831.895C362.734 831.895 287.97 800.636 244.09 750.981C186.775 686.123 177.726 600.433 201.275 540.933H399.296ZM399.296 540.933V831.895C434.131 831.895 510.622 800.636 554.502 750.981C611.817 686.123 620.866 600.433 597.317 540.933H399.296Z" fill="url(#paint0_linear_525_26886)"/>
        <g filter="url(#filter0_d_525_26886)">
            <path fill-rule="evenodd" clip-rule="evenodd" d="M399.296 540.933V831.895C362.734 831.895 287.97 800.636 244.09 750.981C186.775 686.123 177.726 600.433 201.275 540.933H399.296ZM399.296 540.933V831.895C434.131 831.895 510.622 800.636 554.502 750.981C611.817 686.123 620.866 600.433 597.317 540.933H399.296Z" fill="#FFB94F"/>
        </g>
        <g filter="url(#filter1_d_525_26886)">
            <path fill-rule="evenodd" clip-rule="evenodd" d="M433.564 826.829C580.487 695.789 567.969 616.845 551.838 556.987C531.348 480.949 448.946 478.758 404.673 477.581C403.327 477.545 402.015 477.51 400.742 477.474V477.467C400.7 477.468 400.658 477.469 400.616 477.47C400.574 477.469 400.532 477.468 400.49 477.467V477.474C399.215 477.51 397.901 477.545 396.552 477.58C352.203 478.753 269.66 480.936 249.134 556.684C232.976 616.315 220.548 695.297 367.722 825.839L375.149 827.864L383.469 829.632C387.191 830.275 389.169 830.541 392.604 830.918L397.341 831.24H400.49V832.59H403.886L408.614 832.267C412.044 831.889 414.018 831.622 417.734 830.976L425.796 828.863L433.564 826.829Z" fill="#FCD97E"/>
        </g>
        <path d="M272.211 634.099C272.211 638.201 268.886 641.526 264.784 641.526C260.683 641.526 257.358 638.201 257.358 634.099C257.358 629.998 260.683 626.673 264.784 626.673C268.886 626.673 272.211 629.998 272.211 634.099Z" fill="#ED940F"/>
        <path d="M528.089 634.774C528.089 638.876 531.414 642.201 535.515 642.201C539.617 642.201 542.942 638.876 542.942 634.774C542.942 630.673 539.617 627.348 535.515 627.348C531.414 627.348 528.089 630.673 528.089 634.774Z" fill="#ED940F"/>
        <path d="M301.918 713.766C301.918 717.867 298.593 721.192 294.491 721.192C290.39 721.192 287.065 717.867 287.065 713.766C287.065 709.664 290.39 706.339 294.491 706.339C298.593 706.339 301.918 709.664 301.918 713.766Z" fill="#ED940F"/>
        <path d="M498.382 714.441C498.382 718.542 501.707 721.867 505.808 721.867C509.91 721.867 513.235 718.542 513.235 714.441C513.235 710.339 509.91 707.014 505.808 707.014C501.707 707.014 498.382 710.339 498.382 714.441Z" fill="#ED940F"/>
        <path d="M357.953 781.28C357.953 785.381 354.628 788.706 350.527 788.706C346.425 788.706 343.1 785.381 343.1 781.28C343.1 777.178 346.425 773.853 350.527 773.853C354.628 773.853 357.953 777.178 357.953 781.28Z" fill="#ED940F"/>
        <path d="M442.347 781.955C442.347 786.056 445.672 789.381 449.773 789.381C453.875 789.381 457.2 786.056 457.2 781.955C457.2 777.853 453.875 774.528 449.773 774.528C445.672 774.528 442.347 777.853 442.347 781.955Z" fill="#ED940F"/>
        <path fill-rule="evenodd" clip-rule="evenodd" d="M400.521 -12.0088C382.055 -11.8601 329.498 -4.60168 266.998 23.2419C213.495 46.2961 94.6977 78.5721 47.5387 23.2419C40.3676 48.6108 42.646 111.82 103.942 175.787C110.343 158.924 126.062 132.88 153.082 127.3C143.926 141.166 126.629 170.671 114.549 198.245C92.0512 254.464 68.1177 413.999 124.389 508.079C192.823 622.495 310.701 610.01 400.521 554.233V-12.0088Z" fill="#CF8311"/>
        <path fill-rule="evenodd" clip-rule="evenodd" d="M399.814 -12.0054C418.28 -11.8566 470.837 -4.59826 533.337 23.2453C586.84 46.2996 705.637 78.5755 752.796 23.2453C759.967 48.6142 757.689 111.824 696.393 175.79C689.992 158.928 674.273 132.884 647.253 127.304C656.409 141.17 673.706 170.675 685.786 198.249C708.284 254.469 732.217 414.003 675.946 508.082C607.512 622.498 489.633 610.013 399.814 554.237V-12.0054Z" fill="#CF8311"/>
        <path fill-rule="evenodd" clip-rule="evenodd" d="M400.521 96.6886C382.055 96.8075 329.498 102.612 266.998 124.877C213.495 143.312 94.6977 169.121 47.5387 124.877C40.3676 145.163 42.646 195.708 103.942 246.858C110.344 233.375 126.062 212.549 153.082 208.087C143.925 219.175 126.628 242.769 114.548 264.819C92.0505 309.776 68.1186 437.345 124.389 512.574C192.823 604.066 310.702 594.083 400.521 549.481V96.6886Z" fill="#F9AC3A"/>
        <path fill-rule="evenodd" clip-rule="evenodd" d="M399.814 96.6912C418.28 96.8101 470.837 102.614 533.337 124.879C586.84 143.314 705.637 169.124 752.796 124.879C759.967 145.165 757.689 195.711 696.393 246.861C689.991 233.377 674.273 212.551 647.253 208.089C656.41 219.177 673.707 242.772 685.787 264.822C708.285 309.78 732.216 437.348 675.946 512.577C607.512 604.069 489.633 594.085 399.814 549.484V96.6912Z" fill="#F9AC3A"/>
        <g filter="url(#filter2_d_525_26886)">
            <path fill-rule="evenodd" clip-rule="evenodd" d="M445.891 98.5557C517.51 148.489 650.905 261.718 626.349 322.636C601.891 383.314 465.681 401.14 399.849 402.514V402.53C399.718 402.527 399.587 402.525 399.455 402.522C399.326 402.525 399.197 402.527 399.068 402.53V402.514C333.236 401.14 197.026 383.314 172.568 322.636C148.064 261.844 280.854 148.959 352.58 98.8677C366.552 97.8517 378.524 97.2357 388.174 96.9282L399.068 96.7042V96.688L399.462 96.6961L399.606 96.6931L399.849 96.6915V96.7041L421.774 97.1549L445.891 98.5557Z" fill="#FFB94F"/>
        </g>
        <g filter="url(#filter3_d_525_26886)">
            <path fill-rule="evenodd" clip-rule="evenodd" d="M275.189 269.997C261.791 221.451 334.573 131.218 373.65 91.4254L386.809 90.3091L398.77 89.9499V89.9396L398.899 89.9409L398.984 89.9434L399.198 89.937V89.9499L405.144 90.1285C410.409 90.3736 416.94 90.8644 424.561 91.6739C463.696 131.592 536.149 221.551 522.779 269.997C509.435 318.351 435.118 332.557 399.198 333.652V333.665C399.127 333.663 399.055 333.661 398.984 333.659C398.912 333.661 398.841 333.663 398.77 333.665V333.652C362.85 332.557 288.533 318.351 275.189 269.997Z" fill="#FCD97E"/>
        </g>
        <g filter="url(#filter4_d_525_26886)">
            <path fill-rule="evenodd" clip-rule="evenodd" d="M399.14 492.432C370.87 524.655 329.476 544.983 283.354 544.983C198.153 544.983 129.084 475.612 129.084 390.039C129.084 304.466 198.153 235.095 283.354 235.095C329.476 235.095 370.87 255.423 399.14 287.646C427.41 255.423 468.804 235.095 514.926 235.095C600.127 235.095 669.196 304.466 669.196 390.039C669.196 475.612 600.127 544.983 514.926 544.983C468.804 544.983 427.41 524.655 399.14 492.432Z" fill="#FFF9F0"/>
        </g>
        <path fill-rule="evenodd" clip-rule="evenodd" d="M518.971 461.939C566.512 461.939 605.052 423.399 605.052 375.858C605.052 328.318 566.512 289.778 518.971 289.778C471.431 289.778 432.891 328.318 432.891 375.858C432.891 423.399 471.431 461.939 518.971 461.939ZM517.283 399.083C540.028 399.083 558.467 380.645 558.467 357.9C558.467 335.155 540.028 316.716 517.283 316.716C494.538 316.716 476.1 335.155 476.1 357.9C476.1 380.645 494.538 399.083 517.283 399.083Z" fill="#0B1640"/>
        <path fill-rule="evenodd" clip-rule="evenodd" d="M280.647 461.939C328.188 461.939 366.727 423.399 366.727 375.858C366.727 328.318 328.188 289.778 280.647 289.778C233.106 289.778 194.567 328.318 194.567 375.858C194.567 423.399 233.106 461.939 280.647 461.939ZM278.284 397.8C301.029 397.8 319.468 379.362 319.468 356.617C319.468 333.872 301.029 315.433 278.284 315.433C255.539 315.433 237.101 333.872 237.101 356.617C237.101 379.362 255.539 397.8 278.284 397.8Z" fill="#0B1640"/>
        <path fill-rule="evenodd" clip-rule="evenodd" d="M398.315 417.132L373.825 440.477L398.315 472.61V472.611L398.316 472.611L398.316 472.611V472.61L422.807 440.477L398.316 417.132V417.131L398.316 417.131L398.315 417.131V417.132Z" fill="#0B1640"/>
    </g>
    <defs>
        <filter id="filter0_d_525_26886" x="147.314" y="501.775" width="503.965" height="374.679" filterUnits="userSpaceOnUse" color-interpolation-filters="sRGB">
            <feFlood flood-opacity="0" result="BackgroundImageFix"/>
            <feColorMatrix in="SourceAlpha" type="matrix" values="0 0 0 0 0 0 0 0 0 0 0 0 0 0 0 0 0 0 127 0" result="hardAlpha"/>
            <feOffset dy="2.70056"/>
            <feGaussianBlur stdDeviation="20.9293"/>
            <feComposite in2="hardAlpha" operator="out"/>
            <feColorMatrix type="matrix" values="0 0 0 0 0.174465 0 0 0 0 0.118924 0 0 0 0 0.570833 0 0 0 0.15 0"/>
            <feBlend mode="normal" in2="BackgroundImageFix" result="effect1_dropShadow_525_26886"/>
            <feBlend mode="normal" in="SourceGraphic" in2="effect1_dropShadow_525_26886" result="shape"/>
        </filter>
        <filter id="filter1_d_525_26886" x="213.477" y="457.213" width="374.027" height="407.784" filterUnits="userSpaceOnUse" color-interpolation-filters="sRGB">
            <feFlood flood-opacity="0" result="BackgroundImageFix"/>
            <feColorMatrix in="SourceAlpha" type="matrix" values="0 0 0 0 0 0 0 0 0 0 0 0 0 0 0 0 0 0 127 0" result="hardAlpha"/>
            <feOffset dy="6.07625"/>
            <feGaussianBlur stdDeviation="13.1652"/>
            <feComposite in2="hardAlpha" operator="out"/>
            <feColorMatrix type="matrix" values="0 0 0 0 0.313726 0 0 0 0 0.0627451 0 0 0 0 0.258824 0 0 0 0.1 0"/>
            <feBlend mode="normal" in2="BackgroundImageFix" result="effect1_dropShadow_525_26886"/>
            <feBlend mode="normal" in="SourceGraphic" in2="effect1_dropShadow_525_26886" result="shape"/>
        </filter>
        <filter id="filter2_d_525_26886" x="131.785" y="61.5808" width="535.348" height="381.457" filterUnits="userSpaceOnUse" color-interpolation-filters="sRGB">
            <feFlood flood-opacity="0" result="BackgroundImageFix"/>
            <feColorMatrix in="SourceAlpha" type="matrix" values="0 0 0 0 0 0 0 0 0 0 0 0 0 0 0 0 0 0 127 0" result="hardAlpha"/>
            <feOffset dy="2.70056"/>
            <feGaussianBlur stdDeviation="18.9039"/>
            <feComposite in2="hardAlpha" operator="out"/>
            <feColorMatrix type="matrix" values="0 0 0 0 0.45 0 0 0 0 0.345525 0 0 0 0 0.076875 0 0 0 0.12 0"/>
            <feBlend mode="normal" in2="BackgroundImageFix" result="effect1_dropShadow_525_26886"/>
            <feBlend mode="normal" in="SourceGraphic" in2="effect1_dropShadow_525_26886" result="shape"/>
        </filter>
        <filter id="filter3_d_525_26886" x="251.285" y="70.358" width="295.397" height="288.287" filterUnits="userSpaceOnUse" color-interpolation-filters="sRGB">
            <feFlood flood-opacity="0" result="BackgroundImageFix"/>
            <feColorMatrix in="SourceAlpha" type="matrix" values="0 0 0 0 0 0 0 0 0 0 0 0 0 0 0 0 0 0 127 0" result="hardAlpha"/>
            <feOffset dy="2.70056"/>
            <feGaussianBlur stdDeviation="11.1398"/>
            <feComposite in2="hardAlpha" operator="out"/>
            <feColorMatrix type="matrix" values="0 0 0 0 0.479167 0 0 0 0 0.295486 0 0 0 0 0.0798611 0 0 0 0.15 0"/>
            <feBlend mode="normal" in2="BackgroundImageFix" result="effect1_dropShadow_525_26886"/>
            <feBlend mode="normal" in="SourceGraphic" in2="effect1_dropShadow_525_26886" result="shape"/>
        </filter>
        <filter id="filter4_d_525_26886" x="103.429" y="209.439" width="591.422" height="361.199" filterUnits="userSpaceOnUse" color-interpolation-filters="sRGB">
            <feFlood flood-opacity="0" result="BackgroundImageFix"/>
            <feColorMatrix in="SourceAlpha" type="matrix" values="0 0 0 0 0 0 0 0 0 0 0 0 0 0 0 0 0 0 127 0" result="hardAlpha"/>
            <feOffset/>
            <feGaussianBlur stdDeviation="12.8276"/>
            <feComposite in2="hardAlpha" operator="out"/>
            <feColorMatrix type="matrix" values="0 0 0 0 0.3125 0 0 0 0 0.0963542 0 0 0 0 0.277917 0 0 0 0.07 0"/>
            <feBlend mode="normal" in2="BackgroundImageFix" result="effect1_dropShadow_525_26886"/>
            <feBlend mode="normal" in="SourceGraphic" in2="effect1_dropShadow_525_26886" result="shape"/>
        </filter>
        <linearGradient id="paint0_linear_525_26886" x1="459.355" y1="520.092" x2="483.794" y2="715.132" gradientUnits="userSpaceOnUse">
            <stop stop-color="#EC8BCD"/>
            <stop offset="0.3725" stop-color="#C07BCD"/>
            <stop offset="0.4914" stop-color="#B176CD"/>
            <stop offset="0.9988" stop-color="#7350D9"/>
        </linearGradient>
    </defs>
</svg>
